<?xml version="1.0" encoding="utf-8"?>
<!-- Generator: Adobe Illustrator 25.0.0, SVG Export Plug-In . SVG Version: 6.00 Build 0)  -->
<svg version="1.1" id="Layer_1" xmlns="http://www.w3.org/2000/svg" xmlns:xlink="http://www.w3.org/1999/xlink" x="0px" y="0px"
	 viewBox="0 0 131 131.3" style="enable-background:new 0 0 131 131.3;" xml:space="preserve">
<style type="text/css">
	.st0{fill:#ED1C24;}
	.st1{fill:#FFFFFF;}
</style>
<polygon class="st0" points="131,98.1 65.6,131.3 0,98.1 0,0 131,0 "/>
<path class="st1" d="M63,85.6l20.5-53.1h10.1l20.6,53.1h-9.9l-4-10.4H76.9L73,85.6H63z M88.6,42.4l-8.9,24.9h17.8L88.6,42.4z"/>
<path class="st1" d="M83.1,71.4h-12"/>
<g>
	<path class="st1" d="M49.1,85.6l-22.8,0c0.8-2.2,2.3-5.8,2.6-6.6c0.1-0.2-0.1-0.5-0.3-0.7L13.2,63.8l5.4-3.4
		c0.3-0.2,0.5-0.5,0.5-0.8c0-0.1-4.1-10.3-4.1-10.3s10.7,2.5,10.7,2.5c0.3,0,0.6-0.2,0.7-0.4l2.5-5.9l8.1,9.4
		c0.3,0.2,0.6,0.4,0.9,0.4c0.7,0,0.6-0.5,0.4-1.3c0-0.1,0-0.2,0-0.3l-4.3-21c0,0,9.9,5.4,10,5.4c0.3,0,0.5-0.2,0.6-0.4l7.1-12.6
		L59,37.7c0.1,0.2,0.4,0.4,0.6,0.4c0.1,0,10-5.4,10-5.4L49.1,85.6z"/>
	<path class="st1" d="M47.3,93.2L47.3,93.2L47.3,93.2L47.3,93.2C47.3,93.2,47.3,93.2,47.3,93.2z"/>
</g>
</svg>
